HIERARCHY
ROOT Hips
{
  OFFSET 0.000000 0.000000 0.000000
  CHANNELS 6 Xposition Yposition Zposition Zrotation Yrotation Xrotation
  JOINT Spine
  {
    OFFSET 0.062172 1.937575 -0.492720
    CHANNELS 3 Zrotation Yrotation Xrotation
    JOINT Spine1
    {
      OFFSET -0.031137 2.036208 -0.058297
      CHANNELS 3 Zrotation Yrotation Xrotation
      JOINT Spine2
      {
        OFFSET -0.069919 2.151870 0.173696
        CHANNELS 3 Zrotation Yrotation Xrotation
        JOINT Neck
        {
          OFFSET 0.044207 1.410100 0.265621
          CHANNELS 3 Zrotation Yrotation Xrotation
          JOINT Head
          {
            OFFSET -0.049801 1.458443 -0.006888
            CHANNELS 3 Zrotation Yrotation Xrotation
            End Site
            {
              OFFSET 0 0 0
            }
          }
        }
        JOINT LeftShoulder
        {
          OFFSET 2.183824 1.477530 -0.356942
          CHANNELS 3 Zrotation Yrotation Xrotation
          JOINT LeftArm
          {
            OFFSET 5.054600 -0.000000 0.000000
            CHANNELS 3 Zrotation Yrotation Xrotation
            JOINT LeftForeArm
            {
              OFFSET 3.390130 -0.000000 0.000000
              CHANNELS 3 Zrotation Yrotation Xrotation
              JOINT LeftHand
              {
                OFFSET 0.572425 -0.000000 -0.000000
                CHANNELS 3 Zrotation Yrotation Xrotation
                JOINT LeftHandIndex1
                {
                  OFFSET 0.461504 -0.000000 -0.000000
                  CHANNELS 3 Zrotation Yrotation Xrotation
                  End Site
                  {
                    OFFSET 0 0 0
                  }
                }
              }
            }
          }
        }
        JOINT RightShoulder
        {
          OFFSET -2.060333 1.728387 -0.474374
          CHANNELS 3 Zrotation Yrotation Xrotation
          JOINT RightArm
          {
            OFFSET -5.070100 -0.000000 0.000000
            CHANNELS 3 Zrotation Yrotation Xrotation
            JOINT RightForeArm
            {
              OFFSET -3.149570 -0.000000 -0.000000
              CHANNELS 3 Zrotation Yrotation Xrotation
              JOINT RightHand
              {
                OFFSET -0.718191 -0.000000 -0.000000
                CHANNELS 3 Zrotation Yrotation Xrotation
                JOINT RightHandIndex1
                {
                  OFFSET -0.579024 -0.000000 -0.000000
                  CHANNELS 3 Zrotation Yrotation Xrotation
                  End Site
                  {
                    OFFSET 0 0 0
                  }
                }
              }
            }
          }
        }
      }
    }
  }
  JOINT LeftUpLeg
  {
    OFFSET 2.115383 -5.811973 0.000000
    CHANNELS 3 Zrotation Yrotation Xrotation
    JOINT LeftLeg
    {
      OFFSET 2.365414 -6.498926 0.000000
      CHANNELS 3 Zrotation Yrotation Xrotation
      JOINT LeftFoot
      {
        OFFSET 0.177591 -0.487927 1.738650
        CHANNELS 3 Zrotation Yrotation Xrotation
        JOINT LeftToeBase
        {
          OFFSET 0.000000 -0.000000 0.912052
          CHANNELS 3 Zrotation Yrotation Xrotation
          End Site
          {
            OFFSET 0 0 0
          }
        }
      }
    }
  }
  JOINT RightUpLeg
  {
    OFFSET -2.104805 -5.782908 0.000000
    CHANNELS 3 Zrotation Yrotation Xrotation
    JOINT RightLeg
    {
      OFFSET -2.348802 -6.453285 0.000000
      CHANNELS 3 Zrotation Yrotation Xrotation
      JOINT RightFoot
      {
        OFFSET -0.228416 -0.627566 1.804693
        CHANNELS 3 Zrotation Yrotation Xrotation
        JOINT RightToeBase
        {
          OFFSET -0.000000 -0.000000 0.958865
          CHANNELS 3 Zrotation Yrotation Xrotation
          End Site
          {
            OFFSET 0 0 0
          }
        }
      }
    }
  }
}
MOTION
Frames: 10
Frame Time: 0.00833333
21.864100 15.507900 0.238260 -182.752000 -71.247500 184.157000 -17.002500 -8.162520 -1.200060 0.000000 0.000000 19.655900 30.088000 0.000000 -25.873600 0.000000 0.000000 3.557770 18.169900 15.026900 -12.742800 0.000000 0.000000 27.191600 -23.711500 0.000000 -18.266200 0.000000 0.000000 -31.948100 -2.048310 0.889862 9.643780 0.817746 0.620739 7.483940 1.942810 0.036991 2.342280 7.029620 2.143780 -10.612100 -4.033210 0.927023 3.211890 -0.000000 -0.000000 0.000000 17.889000 15.407200 30.147600 0.000000 0.000000 90.350400 -13.612700 0.000000 -0.669047 0.000000 0.000000 7.125020 -0.000000 -0.000000 0.000000 -94.966100 51.376100 -18.289000 0.000000 0.000000 132.242000 25.640700 0.000000 -17.707000 0.000000 0.000000 7.125020
21.904400 15.515100 0.225619 -183.847000 -72.551700 185.193000 -17.062100 -8.834410 -1.644220 0.000000 0.000000 19.659100 29.578600 0.000000 -25.093900 0.000000 0.000000 3.537240 18.008500 14.330800 -12.598300 0.000000 0.000000 27.165900 -24.143800 0.000000 -19.169500 0.000000 0.000000 -29.925000 -2.616390 0.521009 9.669320 1.100540 0.082325 7.602010 2.596020 -0.268817 2.482200 6.928680 2.145990 -10.530900 -4.138660 0.925383 3.187840 -0.000000 -0.000000 0.000000 20.124000 15.600600 39.651500 0.000000 0.000000 77.621500 -14.424700 0.000000 -2.106790 0.000000 0.000000 7.125020 -0.000000 -0.000000 0.000000 -93.688900 51.574900 -17.036800 0.000000 0.000000 132.435000 25.469000 0.000000 -17.116000 0.000000 0.000000 7.125020
21.940400 15.520300 0.217233 -184.477000 -73.763800 185.700000 -16.984100 -9.394640 -2.038260 0.000000 0.000000 19.833700 29.211300 0.000000 -24.167300 0.000000 0.000000 2.387540 18.044100 13.688100 -12.427800 0.000000 0.000000 27.210600 -24.724800 0.000000 -19.785700 0.000000 0.000000 -28.386800 -3.040120 0.146612 9.648470 1.416760 -0.458291 7.773540 3.202090 -0.577434 2.720970 6.635410 2.237990 -10.602400 -4.093340 0.997984 3.258980 -0.000000 -0.000000 0.000000 21.836600 15.152600 48.339200 0.000000 0.000000 63.952200 -14.779300 0.000000 -4.039890 0.000000 0.000000 7.125020 -0.000000 -0.000000 0.000000 -92.495300 51.762100 -15.701300 0.000000 0.000000 132.439000 25.467400 0.000000 -16.445900 0.000000 0.000000 7.125020
21.976400 15.521500 0.214051 -184.507000 -74.801800 185.597000 -16.747800 -9.810540 -2.459430 0.000000 0.000000 20.137200 28.865500 0.000000 -23.245400 0.000000 0.000000 1.098730 18.237600 13.171500 -12.285000 0.000000 0.000000 27.294700 -25.252500 0.000000 -20.088100 0.000000 0.000000 -27.499400 -3.285650 -0.195359 9.696250 1.705460 -0.941887 7.861900 3.675610 -0.845712 2.840190 6.455730 2.250020 -10.521900 -4.021430 1.027860 3.323420 0.000000 0.000000 0.000000 25.812900 14.370800 57.315400 0.000000 0.000000 49.497300 -14.846700 0.000000 -8.242890 0.000000 0.000000 7.125020 0.000000 0.000000 0.000000 -91.816500 52.129100 -14.685000 0.000000 0.000000 132.149000 25.200100 0.000000 -16.580100 0.000000 0.000000 7.125020
22.014800 15.519100 0.216627 -184.669000 -75.861500 185.814000 -16.509500 -10.097700 -3.172520 0.000000 0.000000 20.501300 28.457700 0.000000 -22.183700 0.000000 0.000000 -0.774562 18.309200 12.472200 -12.344000 0.000000 0.000000 27.416300 -25.429500 0.000000 -20.463200 0.000000 0.000000 -26.896600 -3.562070 -0.654076 9.760510 1.977360 -1.575880 7.843560 4.161060 -1.183980 2.863580 6.518460 2.313710 -10.555100 -4.056550 1.070020 3.410540 0.000000 -0.000000 0.000000 32.159500 13.686000 65.863400 0.000000 0.000000 34.974200 -13.733200 0.000000 -12.020500 0.000000 0.000000 7.125020 0.000000 -0.000000 0.000000 -91.375100 52.694000 -13.677600 0.000000 0.000000 131.732000 25.034300 0.000000 -16.695200 0.000000 0.000000 7.125020
22.042000 15.512700 0.227224 -184.756000 -76.561700 185.843000 -16.384800 -10.256200 -3.638570 0.000000 0.000000 20.876100 28.160400 0.000000 -21.522000 0.000000 0.000000 -2.424520 18.348400 11.827700 -12.384000 0.000000 0.000000 27.606700 -25.462800 0.000000 -20.580900 0.000000 0.000000 -26.942600 -3.124500 -1.226600 9.823040 1.718610 -2.317050 8.003910 3.689800 -1.540800 3.040680 7.055670 2.604090 -10.816600 -4.142110 1.228790 3.501280 0.000000 0.000000 0.000000 43.638300 13.665500 74.456300 0.000000 0.000000 22.162700 -12.098500 0.000000 -10.514600 0.000000 0.000000 7.125020 0.000000 0.000000 0.000000 -91.499000 53.018500 -12.236000 0.000000 0.000000 131.199000 25.412900 0.000000 -15.984500 0.000000 0.000000 7.125020
22.061300 15.505300 0.239971 -184.927000 -76.658700 185.943000 -16.398200 -10.172300 -3.873860 0.000000 0.000000 21.181700 28.033800 0.000000 -21.209900 0.000000 0.000000 -3.352130 18.304000 11.516800 -12.566700 0.000000 0.000000 27.865100 -25.366500 0.000000 -20.590800 0.000000 0.000000 -26.614600 -3.841970 -1.582300 10.004700 2.276150 -2.877000 8.115450 4.718900 -1.887490 3.188480 6.990620 2.998650 -10.814700 -4.352490 1.462750 3.455560 -0.000000 0.000000 0.000000 59.179000 14.233600 78.632500 0.000000 0.000000 17.892100 -10.621500 0.000000 -2.812450 0.000000 0.000000 7.125020 -0.000000 0.000000 0.000000 -90.218200 53.992800 -10.527000 0.000000 0.000000 130.648000 25.702700 0.000000 -15.143700 0.000000 0.000000 7.125020
22.077200 15.496100 0.254660 -185.002000 -76.128600 185.998000 -16.473900 -9.755030 -3.916490 0.000000 0.000000 21.331900 28.113300 0.000000 -20.950400 0.000000 0.000000 -4.411780 18.217300 11.505600 -12.896600 0.000000 0.000000 28.162600 -25.023800 0.000000 -20.580200 0.000000 0.000000 -26.183700 -4.424830 -1.771390 10.689000 2.841380 -3.210050 7.912620 5.707330 -2.086700 2.716900 6.897980 3.429830 -10.727400 -4.675410 1.715300 3.439520 0.000000 -0.000000 0.000000 59.329900 13.334400 76.736500 0.000000 0.000000 17.300000 -12.523300 0.000000 1.093380 0.000000 0.000000 7.125020 0.000000 -0.000000 0.000000 -89.554300 55.091100 -9.570340 0.000000 0.000000 129.887000 25.414800 0.000000 -14.616000 0.000000 0.000000 7.125020
22.086800 15.489700 0.276428 -184.993000 -75.183700 185.977000 -16.625000 -9.170150 -3.777460 0.000000 0.000000 21.372800 28.282900 0.000000 -20.868500 0.000000 0.000000 -5.074220 18.088200 11.575300 -13.300200 0.000000 0.000000 28.492100 -24.656300 0.000000 -20.180700 0.000000 0.000000 -27.161800 -4.753880 -1.868720 11.181400 3.390860 -3.406580 7.796880 6.524300 -2.213190 2.418140 6.555250 3.932800 -10.519000 -4.997790 2.016650 3.365720 -0.000000 0.000000 0.000000 49.759600 10.410500 71.987600 0.000000 0.000000 18.557400 -15.573900 0.000000 -1.822250 0.000000 0.000000 7.125020 -0.000000 0.000000 0.000000 -88.990600 56.288900 -8.701810 0.000000 0.000000 129.064000 24.999100 0.000000 -14.675100 0.000000 0.000000 7.125020
22.090100 15.485900 0.302080 -185.492000 -74.081900 186.417000 -16.992500 -8.611210 -3.546260 0.000000 0.000000 21.436300 28.430200 0.000000 -21.034100 0.000000 0.000000 -4.937600 17.768100 11.709000 -13.686800 0.000000 0.000000 28.830200 -24.242300 0.000000 -19.671700 0.000000 0.000000 -28.553600 -4.360450 -2.019580 10.982300 3.250050 -3.598850 8.088420 6.142160 -2.320920 2.825450 6.584720 4.426810 -10.479500 -5.201160 2.307120 3.304170 -0.000000 0.000000 0.000000 37.847200 5.691860 67.385900 0.000000 0.000000 22.250100 -16.038300 0.000000 -7.203500 0.000000 0.000000 7.125020 -0.000000 0.000000 0.000000 -89.236500 57.107000 -7.678370 0.000000 0.000000 128.251000 24.527000 0.000000 -14.291000 0.000000 0.000000 7.125020
